<?xml version="1.0" encoding="UTF-8"?>
<!DOCTYPE svg PUBLIC "-//W3C//DTD SVG 1.1//EN" "http://www.w3.org/Graphics/SVG/1.1/DTD/svg11.dtd">
<svg xmlns="http://www.w3.org/2000/svg" version="1.1" width="1080px" height="1080px" style="shape-rendering:geometricPrecision; text-rendering:geometricPrecision; image-rendering:optimizeQuality; fill-rule:evenodd; clip-rule:evenodd" xmlns:xlink="http://www.w3.org/1999/xlink">
<g><path style="opacity:1" fill="#fefefe" d="M -0.5,-0.5 C 359.5,-0.5 719.5,-0.5 1079.5,-0.5C 1079.5,359.5 1079.5,719.5 1079.5,1079.5C 719.5,1079.5 359.5,1079.5 -0.5,1079.5C -0.5,719.5 -0.5,359.5 -0.5,-0.5 Z"/></g>
<g><path style="opacity:1" fill="#54aed6" d="M 651.5,326.5 C 651.5,322.5 651.5,318.5 651.5,314.5C 621.167,314.5 590.833,314.5 560.5,314.5C 560.825,321.687 560.491,328.687 559.5,335.5C 559.5,328.167 559.5,320.833 559.5,313.5C 590.5,313.5 621.5,313.5 652.5,313.5C 652.818,318.032 652.485,322.366 651.5,326.5 Z"/></g>
<g><path style="opacity:1" fill="#51acd6" d="M 841.5,315.5 C 793.67,314.501 745.67,314.168 697.5,314.5C 720.762,313.829 744.762,313.495 769.5,313.5C 793.833,313.833 818.167,314.167 842.5,314.5C 842.376,315.107 842.043,315.44 841.5,315.5 Z"/></g>
<g><path style="opacity:1" fill="#010101" d="M 274.5,314.5 C 359.332,313.334 444.332,313.168 529.5,314C 538.644,317.975 544.31,324.808 546.5,334.5C 524.848,433.444 503.348,532.444 482,631.5C 475.272,641.225 466.438,648.392 455.5,653C 385.834,653.5 316.167,653.667 246.5,653.5C 267.638,556.31 288.972,459.143 310.5,362C 298.651,345.993 286.651,330.16 274.5,314.5 Z"/></g>
<g><path style="opacity:1" fill="#1891c8" d="M 651.5,326.5 C 649.87,390.503 648.037,454.503 646,518.5C 645.333,534.167 645.333,549.833 646,565.5C 674.167,497 702.333,428.5 730.5,360C 719.374,344.91 708.374,329.743 697.5,314.5C 745.67,314.168 793.67,314.501 841.5,315.5C 805.5,400.5 769.5,485.5 733.5,570.5C 726.258,574.765 718.758,578.765 711,582.5C 710.215,588.619 711.549,594.286 715,599.5C 716.776,600.536 718.609,600.536 720.5,599.5C 720.167,600.833 719.833,602.167 719.5,603.5C 718.833,603.5 718.5,603.833 718.5,604.5C 717.699,606.042 717.366,607.708 717.5,609.5C 711.278,602.659 707.111,595.326 705,587.5C 699.041,601.384 700.875,614.051 710.5,625.5C 708.787,626.635 708.12,628.302 708.5,630.5C 702.994,623.818 699.327,616.151 697.5,607.5C 689.741,622.153 691.074,635.819 701.5,648.5C 699.616,649.382 698.283,650.882 697.5,653C 650.501,653.5 603.501,653.667 556.5,653.5C 557.574,547.501 558.574,441.501 559.5,335.5C 560.491,328.687 560.825,321.687 560.5,314.5C 590.833,314.5 621.167,314.5 651.5,314.5C 651.5,318.5 651.5,322.5 651.5,326.5 Z"/></g>
<g><path style="opacity:1" fill="#fdfdfd" d="M 406.5,587.5 C 386.326,587.83 366.326,587.497 346.5,586.5C 361.494,517.848 376.494,449.181 391.5,380.5C 411.489,379.5 431.489,379.167 451.5,379.5C 437.011,448.945 422.011,518.278 406.5,587.5 Z"/></g>
<g><path style="opacity:1" fill="#7b7b7b" d="M 790.5,562.5 C 790.5,555.5 790.5,548.5 790.5,541.5C 801.387,534.783 810.553,526.117 818,515.5C 819.036,512.247 819.703,508.914 820,505.5C 825.494,519.867 823.16,532.867 813,544.5C 806.183,551.497 798.683,557.497 790.5,562.5 Z"/></g>
<g><path style="opacity:1" fill="#767676" d="M 807.5,578.5 C 806.509,571.687 806.175,564.687 806.5,557.5C 811.496,552.336 816.329,547.003 821,541.5C 823.723,536.723 825.89,531.723 827.5,526.5C 828.971,527.381 829.804,528.714 830,530.5C 832.966,543.945 829.966,555.945 821,566.5C 816.926,571.079 812.426,575.079 807.5,578.5 Z"/></g>
<g><path style="opacity:1" fill="#949494" d="M 790.5,541.5 C 790.5,548.5 790.5,555.5 790.5,562.5C 781.826,568.841 772.493,574.175 762.5,578.5C 762.5,571.5 762.5,564.5 762.5,557.5C 772.091,552.567 781.424,547.233 790.5,541.5 Z"/></g>
<g><path style="opacity:1" fill="#acacac" d="M 762.5,557.5 C 762.5,564.5 762.5,571.5 762.5,578.5C 754.213,583.31 745.547,587.643 736.5,591.5C 735.19,584.599 735.19,577.599 736.5,570.5C 745.167,566.167 753.833,561.833 762.5,557.5 Z"/></g>
<g><path style="opacity:1" fill="#8d8d8d" d="M 806.5,557.5 C 806.175,564.687 806.509,571.687 807.5,578.5C 798.978,585.675 789.644,591.675 779.5,596.5C 779.5,589.5 779.5,582.5 779.5,575.5C 788.701,569.738 797.701,563.738 806.5,557.5 Z"/></g>
<g><path style="opacity:1" fill="#bebfbf" d="M 733.5,570.5 C 734.202,571.116 735.202,571.116 736.5,570.5C 735.19,577.599 735.19,584.599 736.5,591.5C 731.232,594.134 725.899,596.801 720.5,599.5C 718.609,600.536 716.776,600.536 715,599.5C 711.549,594.286 710.215,588.619 711,582.5C 718.758,578.765 726.258,574.765 733.5,570.5 Z"/></g>
<g><path style="opacity:1" fill="#3e3e3e" d="M 346.5,586.5 C 366.326,587.497 386.326,587.83 406.5,587.5C 386.329,588.828 365.996,588.828 345.5,587.5C 345.624,586.893 345.957,586.56 346.5,586.5 Z"/></g>
<g><path style="opacity:1" fill="#a8a8a8" d="M 779.5,575.5 C 779.5,582.5 779.5,589.5 779.5,596.5C 768.017,603.445 756.017,609.445 743.5,614.5C 743.5,607.833 743.5,601.167 743.5,594.5C 755.465,588.183 767.465,581.85 779.5,575.5 Z"/></g>
<g><path style="opacity:1" fill="#bfbfbf" d="M 743.5,594.5 C 743.5,601.167 743.5,607.833 743.5,614.5C 741.604,615.481 739.604,616.481 737.5,617.5C 730.617,613.898 724.284,609.565 718.5,604.5C 718.5,603.833 718.833,603.5 719.5,603.5C 727.5,600.5 735.5,597.5 743.5,594.5 Z"/></g>
<g><path style="opacity:1" fill="#1481bb" d="M 717.5,609.5 C 722.941,614.608 728.941,618.941 735.5,622.5C 735.825,630.352 735.492,638.018 734.5,645.5C 725.035,640.711 717.035,634.044 710.5,625.5C 700.875,614.051 699.041,601.384 705,587.5C 707.111,595.326 711.278,602.659 717.5,609.5 Z"/></g>
<g><path style="opacity:1" fill="#1f99ce" d="M 735.5,622.5 C 747.43,629.298 759.764,635.298 772.5,640.5C 772.5,648.5 772.5,656.5 772.5,664.5C 758.958,659.729 746.291,653.396 734.5,645.5C 735.492,638.018 735.825,630.352 735.5,622.5 Z"/></g>
<g><path style="opacity:1" fill="#1480ba" d="M 708.5,630.5 C 712.833,634.5 717.167,638.5 721.5,642.5C 721.825,650.019 721.492,657.352 720.5,664.5C 713.2,660.345 706.867,655.012 701.5,648.5C 691.074,635.819 689.741,622.153 697.5,607.5C 699.327,616.151 702.994,623.818 708.5,630.5 Z"/></g>
<g><path style="opacity:1" fill="#2bb2e1" d="M 772.5,640.5 C 785.802,646.149 798.468,652.815 810.5,660.5C 810.826,669.017 810.493,677.35 809.5,685.5C 797.294,678.232 784.961,671.232 772.5,664.5C 772.5,656.5 772.5,648.5 772.5,640.5 Z"/></g>
<g><path style="opacity:1" fill="#1e94ca" d="M 721.5,642.5 C 732.01,649.591 743.01,655.925 754.5,661.5C 754.825,669.019 754.492,676.352 753.5,683.5C 742.002,677.921 731.002,671.588 720.5,664.5C 721.492,657.352 721.825,650.019 721.5,642.5 Z"/></g>
<g><path style="opacity:1" fill="#27abdc" d="M 754.5,661.5 C 765.025,666.595 775.358,671.928 785.5,677.5C 786.134,685.903 785.467,693.903 783.5,701.5C 773.464,695.485 763.464,689.485 753.5,683.5C 754.492,676.352 754.825,669.019 754.5,661.5 Z"/></g>
<g><path style="opacity:1" fill="#38ccf6" d="M 810.5,660.5 C 844.816,678.805 856.983,706.805 847,744.5C 843.045,719.224 830.545,699.558 809.5,685.5C 810.493,677.35 810.826,669.017 810.5,660.5 Z"/></g>
<g><path style="opacity:1" fill="#2fbce9" d="M 785.5,677.5 C 794.181,681.502 802.181,686.502 809.5,692.5C 809.827,702.015 809.494,711.348 808.5,720.5C 800.427,713.752 792.093,707.418 783.5,701.5C 785.467,693.903 786.134,685.903 785.5,677.5 Z"/></g>
<g><path style="opacity:1" fill="#2594c9" d="M 559.5,690.5 C 561.167,690.5 562.833,690.5 564.5,690.5C 564.179,695.695 564.513,700.695 565.5,705.5C 565.154,708.602 565.821,711.435 567.5,714C 569.701,714.825 571.534,714.325 573,712.5C 574.363,704.571 574.863,696.571 574.5,688.5C 578.5,688.5 582.5,688.5 586.5,688.5C 587.011,697.975 586.178,707.309 584,716.5C 579.517,726.66 572.017,730.16 561.5,727C 557.051,723.603 554.551,719.103 554,713.5C 553.333,706.167 553.333,698.833 554,691.5C 555.699,690.594 557.533,690.261 559.5,690.5 Z"/></g>
<g><path style="opacity:1" fill="#060606" d="M 334.5,689.5 C 358.278,688.364 365.112,698.698 355,720.5C 347.371,726.874 338.537,729.541 328.5,728.5C 328.168,716.149 328.501,703.815 329.5,691.5C 331.336,690.972 333.003,690.306 334.5,689.5 Z"/></g>
<g><path style="opacity:1" fill="#0b0b0b" d="M 375.5,688.5 C 378.833,688.5 382.167,688.5 385.5,688.5C 389.489,700.132 393.489,711.798 397.5,723.5C 395.363,725.66 392.696,726.66 389.5,726.5C 386.319,725.263 382.985,724.263 379.5,723.5C 375.054,722.44 373.054,724.106 373.5,728.5C 369.818,728.665 366.152,728.499 362.5,728C 364.561,715.435 367.728,702.935 372,690.5C 373.302,689.915 374.469,689.249 375.5,688.5 Z"/></g>
<g><path style="opacity:1" fill="#090909" d="M 416.5,727.5 C 414.5,727.5 412.5,727.5 410.5,727.5C 410.826,718.983 410.493,710.65 409.5,702.5C 406.167,702.5 402.833,702.5 399.5,702.5C 399.5,698.833 399.5,695.167 399.5,691.5C 410.461,690.245 421.461,689.579 432.5,689.5C 432.82,692.898 432.487,696.232 431.5,699.5C 428.579,700.407 425.579,700.74 422.5,700.5C 422.5,709.5 422.5,718.5 422.5,727.5C 420.5,727.5 418.5,727.5 416.5,727.5 Z"/></g>
<g><path style="opacity:1" fill="#090909" d="M 450.5,688.5 C 453.448,688.223 456.281,688.556 459,689.5C 463.429,700.454 467.262,711.62 470.5,723C 470.355,723.772 470.022,724.439 469.5,725C 465.914,726.108 462.247,726.608 458.5,726.5C 458.5,725.5 458.5,724.5 458.5,723.5C 454.833,723.5 451.167,723.5 447.5,723.5C 447.714,725.144 447.38,726.644 446.5,728C 443.167,728.667 439.833,728.667 436.5,728C 435.941,727.275 435.608,726.442 435.5,725.5C 438.853,714.248 442.019,702.914 445,691.5C 446.649,690.047 448.482,689.047 450.5,688.5 Z"/></g>
<g><path style="opacity:1" fill="#2494c9" d="M 528.5,688.5 C 532.106,688.211 535.606,688.544 539,689.5C 543.061,699.682 546.728,710.015 550,720.5C 550.72,722.112 550.554,723.612 549.5,725C 545.938,726.261 542.271,727.094 538.5,727.5C 538.67,726.178 538.337,725.011 537.5,724C 534.183,723.502 530.85,723.335 527.5,723.5C 527.5,725.167 527.5,726.833 527.5,728.5C 523.818,728.665 520.152,728.499 516.5,728C 515.941,727.275 515.608,726.442 515.5,725.5C 518.362,714.08 521.529,702.747 525,691.5C 525.985,690.186 527.152,689.186 528.5,688.5 Z"/></g>
<g><path style="opacity:1" fill="#2193c9" d="M 641.5,689.5 C 644.167,689.5 646.833,689.5 649.5,689.5C 649.5,692.833 649.5,696.167 649.5,699.5C 646.375,700.479 643.042,700.813 639.5,700.5C 639.5,709.5 639.5,718.5 639.5,727.5C 635.5,727.833 631.5,728.167 627.5,728.5C 627.5,719.833 627.5,711.167 627.5,702.5C 623.833,702.5 620.167,702.5 616.5,702.5C 616.5,698.833 616.5,695.167 616.5,691.5C 624.799,690.473 633.132,689.806 641.5,689.5 Z"/></g>
<g><path style="opacity:1" fill="#2494c9" d="M 501.5,689.5 C 504.518,689.335 507.518,689.502 510.5,690C 511.578,690.674 512.245,691.674 512.5,693C 509.262,704.114 506.095,715.281 503,726.5C 502.228,727.849 501.061,728.682 499.5,729C 496.118,729.824 492.784,729.657 489.5,728.5C 485.008,717.523 481.008,706.357 477.5,695C 478.093,693.118 479.427,692.118 481.5,692C 484.167,691.333 486.833,691.333 489.5,692C 491.475,698.259 493.641,704.425 496,710.5C 497.687,703.417 499.52,696.417 501.5,689.5 Z"/></g>
<g><path style="opacity:1" fill="#2093c9" d="M 591.5,689.5 C 594.167,689.5 596.833,689.5 599.5,689.5C 599.5,698.5 599.5,707.5 599.5,716.5C 604.453,715.671 609.453,715.337 614.5,715.5C 614.5,719.167 614.5,722.833 614.5,726.5C 605.858,727.299 597.191,727.632 588.5,727.5C 588.5,715.167 588.5,702.833 588.5,690.5C 589.791,690.737 590.791,690.404 591.5,689.5 Z"/></g>
<g><path style="opacity:1" fill="#9ccfe7" d="M 641.5,689.5 C 644.287,688.523 647.287,688.19 650.5,688.5C 650.815,692.371 650.482,696.038 649.5,699.5C 649.5,696.167 649.5,692.833 649.5,689.5C 646.833,689.5 644.167,689.5 641.5,689.5 Z"/></g>
<g><path style="opacity:1" fill="#94cbe5" d="M 559.5,690.5 C 561.265,689.539 563.265,689.205 565.5,689.5C 565.5,694.833 565.5,700.167 565.5,705.5C 564.513,700.695 564.179,695.695 564.5,690.5C 562.833,690.5 561.167,690.5 559.5,690.5 Z"/></g>
<g><path style="opacity:1" fill="#36ccf6" d="M 809.5,692.5 C 839.036,711.569 847.87,737.902 836,771.5C 832.063,751.623 822.896,734.623 808.5,720.5C 809.494,711.348 809.827,702.015 809.5,692.5 Z"/></g>
<g><path style="opacity:1" fill="#fafafa" d="M 344.5,701.5 C 347.287,702.378 348.62,704.378 348.5,707.5C 348.353,711.637 346.353,714.303 342.5,715.5C 341.5,715.5 340.5,715.5 339.5,715.5C 339.5,710.833 339.5,706.167 339.5,701.5C 341.167,701.5 342.833,701.5 344.5,701.5 Z"/></g>
<g><path style="opacity:1" fill="#acacac" d="M 344.5,701.5 C 342.833,701.5 341.167,701.5 339.5,701.5C 339.5,706.167 339.5,710.833 339.5,715.5C 340.5,715.5 341.5,715.5 342.5,715.5C 341.432,716.434 340.099,716.768 338.5,716.5C 338.5,711.167 338.5,705.833 338.5,700.5C 340.735,700.205 342.735,700.539 344.5,701.5 Z"/></g>
<g><path style="opacity:1" fill="#858585" d="M 409.5,702.5 C 410.493,710.65 410.826,718.983 410.5,727.5C 412.5,727.5 414.5,727.5 416.5,727.5C 414.393,728.468 412.059,728.802 409.5,728.5C 409.5,719.833 409.5,711.167 409.5,702.5 Z"/></g>
<g><path style="opacity:1" fill="#e4e4e4" d="M 378.5,706.5 C 379.924,708.515 380.59,710.848 380.5,713.5C 379.5,713.5 378.5,713.5 377.5,713.5C 377.448,711.097 377.781,708.764 378.5,706.5 Z"/></g>
<g><path style="opacity:1" fill="#d4d4d4" d="M 451.5,706.5 C 453.448,708.32 454.448,710.654 454.5,713.5C 453.167,713.5 451.833,713.5 450.5,713.5C 450.993,711.194 451.326,708.861 451.5,706.5 Z"/></g>
<g><path style="opacity:1" fill="#dbedf6" d="M 531.5,707.5 C 533.614,708.784 534.614,710.784 534.5,713.5C 533.167,713.5 531.833,713.5 530.5,713.5C 530.833,711.5 531.167,709.5 531.5,707.5 Z"/></g>
</svg>
