<?xml version="1.0" standalone="no"?>
<!DOCTYPE svg PUBLIC "-//W3C//DTD SVG 20010904//EN"
 "http://www.w3.org/TR/2001/REC-SVG-20010904/DTD/svg10.dtd">
<svg version="1.0" xmlns="http://www.w3.org/2000/svg"
 width="1080.000000pt" height="1080.000000pt" viewBox="0 0 1080.000000 1080.000000"
 preserveAspectRatio="xMidYMid meet">

<g transform="translate(0.000000,1080.000000) scale(0.100000,-0.100000)"
fill="#000000" stroke="none">
<path d="M3353 10083 l-79 -188 -196 -3 -196 -2 -22 35 c-90 145 -306 130
-384 -27 -34 -68 -33 -120 2 -189 79 -157 291 -171 382 -24 l22 35 154 0 c100
0 154 -4 154 -10 0 -6 -21 -60 -47 -120 l-46 -110 -524 0 c-287 0 -523 4 -523
8 0 16 -73 93 -104 109 -46 24 -141 22 -191 -4 -98 -52 -148 -152 -124 -249
17 -66 94 -145 161 -163 91 -26 191 12 238 88 l25 40 483 1 c467 0 483 -1 477
-19 -3 -10 -28 -70 -55 -132 l-49 -114 -179 -3 -179 -2 -29 45 c-61 97 -202
125 -296 59 -122 -85 -142 -224 -49 -327 46 -52 102 -77 170 -77 76 0 136 31
170 86 l26 43 147 1 146 0 -56 -130 -55 -130 -316 0 -316 1 -26 43 c-31 51
-111 96 -172 96 -133 0 -226 -92 -227 -223 -1 -211 273 -301 395 -130 l30 42
278 0 c152 1 277 -2 277 -5 0 -3 -34 -85 -76 -182 -42 -97 -78 -183 -81 -190
-4 -10 46 -12 246 -10 l252 3 185 455 c387 950 472 1155 480 1153 8 -2 82
-181 443 -1068 l219 -540 252 -3 c201 -2 251 0 247 10 -3 7 -39 93 -81 190
-42 97 -76 179 -76 182 0 3 125 6 278 5 l277 0 30 -42 c99 -135 301 -114 379
40 39 77 10 204 -60 262 -100 81 -260 59 -323 -45 l-26 -43 -316 -1 -316 0
-55 130 -56 130 146 0 147 -1 26 -43 c34 -55 94 -86 170 -86 68 0 124 25 170
77 93 103 73 242 -49 327 -94 66 -235 38 -296 -59 l-29 -45 -179 2 -179 3 -49
114 c-27 62 -52 122 -55 132 -6 18 10 19 477 19 l483 0 20 -37 c25 -45 93 -90
152 -99 168 -25 311 164 235 311 -81 159 -295 177 -384 33 l-23 -37 -521 -1
-522 0 -49 118 -50 117 156 3 c141 2 157 1 166 -15 6 -10 28 -37 50 -59 103
-107 286 -71 351 70 31 66 30 119 -2 184 -78 157 -294 172 -384 27 l-22 -35
-196 2 -196 3 -80 188 -79 187 -222 0 -222 0 -80 -187z m-629 -204 c38 -30 49
-64 35 -106 -11 -35 -51 -63 -90 -63 -29 0 -89 62 -89 93 0 29 34 75 64 87 34
14 52 11 80 -11z m1979 -19 c15 -17 27 -42 27 -56 0 -32 -59 -94 -89 -94 -39
0 -79 28 -90 63 -14 42 -3 76 36 106 36 29 78 22 116 -19z m-2785 -406 c32
-37 30 -88 -7 -125 -16 -16 -39 -29 -51 -29 -34 0 -79 28 -96 61 -45 88 87
169 154 93z m3588 17 c44 -27 60 -70 40 -110 -17 -33 -62 -61 -96 -61 -12 0
-35 13 -51 29 -59 59 -21 157 61 160 8 1 29 -8 46 -18z m-3114 -432 c11 -6 26
-26 34 -45 12 -29 12 -39 0 -68 -26 -64 -97 -76 -147 -27 -40 40 -39 83 2 122
33 31 74 38 111 18z m2637 -20 c41 -40 41 -80 2 -120 -74 -74 -186 1 -146 97
26 63 94 73 144 23z m-3078 -428 c51 -52 34 -128 -35 -151 -77 -25 -143 49
-111 126 26 62 97 74 146 25z m3524 13 c62 -40 48 -138 -24 -165 -31 -12 -86
6 -106 34 -56 81 47 185 130 131z"/>
<path d="M390 7450 l0 -390 159 0 c87 0 182 5 211 10 124 24 237 105 287 209
26 51 28 66 28 171 0 107 -2 119 -28 168 -39 74 -106 138 -182 173 -73 35
-175 49 -357 49 l-118 0 0 -390z m355 229 c54 -15 118 -82 135 -142 8 -29 11
-75 8 -117 -10 -138 -83 -206 -232 -217 l-76 -6 0 247 0 246 63 0 c34 0 80 -5
102 -11z"/>
<path d="M1295 7528 c-59 -172 -121 -348 -136 -391 l-28 -78 102 3 101 3 20
63 20 62 141 0 141 0 20 -62 20 -63 102 -3 101 -3 -95 278 c-53 153 -113 328
-133 388 l-38 110 -115 3 -115 3 -108 -313z m265 -54 c22 -65 40 -124 40 -131
0 -10 -22 -13 -85 -13 -61 0 -85 3 -85 12 0 19 81 260 86 255 3 -2 22 -57 44
-123z"/>
<path d="M1940 7765 l0 -75 105 0 105 0 0 -315 0 -315 95 0 95 0 0 315 0 315
105 0 105 0 0 75 0 75 -305 0 -305 0 0 -75z"/>
<path d="M2855 7823 c-4 -10 -27 -74 -50 -143 -24 -69 -82 -237 -129 -373
l-86 -248 102 3 102 3 20 63 20 63 140 -3 140 -3 20 -62 20 -63 103 0 103 0
-15 38 c-16 41 -255 733 -255 739 0 1 -51 3 -114 3 -99 0 -115 -2 -121 -17z
m205 -485 c0 -9 -164 -11 -172 -2 -5 4 53 193 78 254 5 12 94 -226 94 -252z"/>
<path d="M3710 7834 c0 -3 61 -177 135 -386 74 -209 135 -382 135 -384 0 -2
53 -4 119 -4 l118 0 16 43 c40 104 257 722 257 729 0 5 -44 7 -97 6 l-98 -3
-94 -287 c-52 -159 -97 -288 -100 -288 -4 0 -46 125 -95 278 -50 152 -94 283
-99 290 -10 12 -197 19 -197 6z"/>
<path d="M4775 7823 c-4 -10 -27 -74 -50 -143 -24 -69 -82 -237 -129 -373
l-86 -248 102 3 102 3 20 63 20 63 140 -3 140 -3 20 -62 20 -63 103 0 103 0
-15 38 c-16 41 -255 733 -255 739 0 1 -51 3 -114 3 -99 0 -115 -2 -121 -17z
m205 -485 c0 -9 -164 -11 -172 -2 -5 4 53 193 78 254 5 12 94 -226 94 -252z"/>
<path d="M5370 7573 c0 -152 5 -284 10 -305 41 -145 200 -237 364 -209 123 21
194 73 245 181 26 55 26 55 26 325 l0 270 -92 3 -93 3 -1 -248 c0 -277 -5
-305 -58 -340 -60 -41 -162 -25 -193 30 -9 16 -14 98 -18 287 l-5 265 -92 3
-93 3 0 -268z"/>
<path d="M6180 7450 l0 -390 210 0 210 0 0 70 0 70 -115 0 -115 0 -2 318 -3
317 -92 3 -93 3 0 -391z"/>
<path d="M6654 7827 c-3 -8 -4 -41 -2 -73 l3 -59 108 -3 107 -3 0 -314 0 -315
90 0 90 0 0 315 0 315 110 0 111 0 -3 73 -3 72 -303 3 c-249 2 -303 0 -308
-11z"/>
<path d="M1660 6665 c0 -22 4 -25 40 -25 l40 0 0 -120 0 -120 30 0 30 0 0 120
0 120 40 0 c36 0 40 3 40 25 l0 25 -110 0 -110 0 0 -25z"/>
<path d="M2060 6545 l0 -145 85 0 c84 0 85 0 85 25 0 24 -3 25 -56 25 l-55 0
3 38 c3 36 4 37 46 40 34 3 42 7 42 23 0 16 -7 19 -45 19 -45 0 -45 0 -45 35
l0 35 55 0 c52 0 55 1 55 25 0 25 -1 25 -85 25 l-85 0 0 -145z"/>
<path d="M2485 6678 c-62 -34 -92 -96 -79 -164 8 -44 61 -100 104 -109 48 -11
97 3 135 37 19 16 35 34 35 39 0 15 -77 10 -90 -6 -19 -23 -68 -18 -95 10 -34
33 -34 93 -2 123 27 26 79 29 101 7 15 -16 86 -21 86 -6 0 15 -49 61 -75 71
-34 13 -95 12 -120 -2z"/>
<path d="M2860 6545 l0 -145 30 0 30 0 0 60 0 60 60 0 60 0 0 -60 0 -60 35 0
35 0 0 145 0 145 -35 0 -35 0 0 -60 0 -60 -60 0 -60 0 0 60 0 60 -30 0 -30 0
0 -145z"/>
<path d="M3300 6545 l0 -145 35 0 34 0 3 92 3 92 58 -92 c55 -87 60 -92 93
-92 l34 0 0 145 0 145 -35 0 -34 0 -3 -92 -3 -93 -59 93 c-55 86 -61 92 -92
92 l-34 0 0 -145z"/>
<path d="M3803 6670 c-48 -29 -67 -65 -67 -124 0 -143 164 -197 258 -86 33 40
36 118 7 166 -37 60 -136 83 -198 44z m133 -61 c29 -32 26 -105 -5 -130 -79
-64 -179 53 -109 128 29 30 87 32 114 2z"/>
<path d="M4200 6545 l0 -145 75 0 c73 0 75 1 75 25 0 23 -4 25 -40 25 l-40 0
0 120 0 120 -35 0 -35 0 0 -145z"/>
<path d="M4595 6681 c-86 -36 -113 -165 -48 -233 100 -105 276 -17 249 125
-16 88 -117 142 -201 108z m115 -71 c28 -28 27 -96 -2 -127 -37 -39 -99 -30
-124 19 -20 39 -11 92 19 113 30 21 83 19 107 -5z"/>
<path d="M5032 6670 c-116 -71 -83 -245 51 -267 76 -12 157 52 157 126 l0 31
-75 0 c-73 0 -75 -1 -75 -25 0 -22 4 -25 40 -25 44 0 49 -8 22 -33 -27 -24
-74 -21 -100 6 -29 31 -30 99 -2 127 24 24 82 27 100 5 7 -9 29 -15 52 -15 40
0 40 0 26 23 -42 64 -132 86 -196 47z"/>
<path d="M5400 6684 c0 -3 23 -49 50 -103 36 -71 50 -109 50 -139 0 -40 1 -42
30 -42 29 0 30 1 30 50 0 40 9 67 51 145 l51 95 -39 0 c-38 0 -40 -2 -57 -49
-32 -90 -38 -92 -70 -17 -27 63 -30 66 -62 66 -19 0 -34 -3 -34 -6z"/>
</g>
</svg>
