<?xml version="1.0" standalone="no"?>
<!DOCTYPE svg PUBLIC "-//W3C//DTD SVG 20010904//EN"
 "http://www.w3.org/TR/2001/REC-SVG-20010904/DTD/svg10.dtd">
<svg version="1.0" xmlns="http://www.w3.org/2000/svg"
 width="1080.000000pt" height="1080.000000pt" viewBox="0 0 1080.000000 1080.000000"
 preserveAspectRatio="xMidYMid meet">

<g transform="translate(0.000000,1080.000000) scale(0.100000,-0.100000)"
fill="#000000" stroke="none">
<path d="M5462 7343 c-5 -10 -42 -96 -82 -190 l-73 -173 -197 0 -198 0 -12 30
c-37 89 -169 136 -268 94 -47 -19 -98 -68 -124 -118 -16 -31 -19 -53 -16 -102
5 -74 37 -130 100 -171 37 -25 51 -28 123 -28 70 0 86 3 118 25 20 13 46 41
59 62 l23 37 158 1 c86 0 157 -3 157 -7 0 -5 -22 -57 -48 -118 l-48 -110 -520
-3 -521 -2 -29 45 c-54 86 -168 118 -264 74 -60 -27 -88 -54 -116 -114 -39
-82 -27 -159 33 -226 52 -57 100 -79 173 -79 78 0 131 26 172 85 l32 45 482 0
483 0 -46 -107 c-24 -60 -49 -118 -54 -130 -8 -23 -11 -23 -191 -23 l-183 1
-23 37 c-111 180 -402 88 -402 -127 0 -144 154 -255 291 -210 50 17 98 56 116
95 l17 34 143 0 c79 0 143 -3 143 -7 0 -4 -23 -62 -52 -130 l-51 -123 -318 0
-317 0 -22 35 c-34 55 -112 95 -186 95 -192 0 -292 -222 -165 -364 103 -114
281 -96 358 35 l17 29 278 0 c153 0 278 -2 278 -4 0 -2 -36 -88 -80 -192 -44
-103 -80 -191 -80 -196 0 -4 111 -8 248 -8 l247 0 159 393 c349 859 498 1222
504 1229 7 7 58 -115 443 -1062 121 -300 224 -548 228 -553 4 -4 118 -6 253
-5 l246 3 -79 185 c-43 102 -79 191 -79 198 0 9 61 12 273 12 l272 0 35 -47
c43 -57 96 -86 169 -91 111 -8 216 81 228 193 11 93 -41 190 -121 226 -55 25
-145 25 -195 0 -38 -20 -101 -83 -101 -101 0 -6 -122 -10 -322 -10 l-323 0
-50 121 c-27 67 -51 125 -53 130 -2 5 59 9 140 9 l143 -1 25 -40 c49 -80 165
-119 254 -85 49 19 107 71 133 119 37 69 17 173 -46 240 -97 105 -273 90 -343
-29 l-20 -34 -182 0 -183 0 -51 123 c-29 68 -52 126 -52 130 0 4 217 7 483 7
l482 -1 26 -43 c35 -57 94 -86 175 -86 158 0 269 165 205 305 -21 46 -79 101
-130 122 -46 19 -139 12 -183 -14 -18 -10 -49 -40 -68 -66 l-35 -47 -518 2
-519 3 -48 115 -49 115 157 3 c138 2 158 1 167 -14 45 -75 109 -114 188 -115
130 -2 230 95 231 222 1 74 -39 141 -108 184 -42 25 -59 30 -115 30 -85 0
-135 -25 -176 -88 l-30 -46 -195 0 -195 -1 -80 190 -79 190 -223 0 c-202 0
-223 -2 -231 -17z m-691 -382 c48 -48 38 -116 -22 -146 -36 -19 -64 -13 -101
23 -39 36 -38 84 1 123 20 20 39 29 61 29 22 0 41 -9 61 -29z m1965 -5 c19
-19 34 -41 34 -50 0 -33 -30 -73 -65 -90 -32 -16 -38 -16 -69 -1 -61 29 -74
99 -27 146 41 41 83 39 127 -5z m-2805 -386 c28 -16 52 -68 44 -99 -15 -59
-67 -89 -119 -67 -71 30 -85 89 -32 142 35 35 70 43 107 24z m3628 -19 c52
-49 34 -121 -38 -150 -24 -10 -34 -10 -60 3 -37 20 -51 44 -51 91 0 78 89 112
149 56z m-3139 -416 c35 -18 50 -43 50 -85 0 -40 -47 -90 -85 -90 -57 0 -112
68 -95 116 10 25 66 74 86 74 8 0 28 -7 44 -15z m2620 0 c30 -16 60 -61 60
-91 0 -9 -15 -31 -34 -50 -44 -44 -86 -46 -127 -5 -45 45 -34 116 22 147 31
17 44 17 79 -1z m-3044 -458 c75 -89 -55 -200 -137 -118 -37 37 -38 79 -4 120
41 48 99 47 141 -2z m3537 2 c44 -54 0 -149 -71 -149 -46 0 -71 16 -88 56 -40
96 92 174 159 93z"/>
<path d="M2510 4540 l0 -390 159 0 c87 0 182 5 211 10 124 24 237 105 287 209
26 51 28 66 28 171 0 107 -2 119 -28 168 -39 74 -106 138 -182 173 -73 35
-175 49 -357 49 l-118 0 0 -390z m355 229 c54 -15 118 -82 135 -142 8 -29 11
-75 8 -117 -10 -138 -83 -206 -232 -217 l-76 -6 0 247 0 246 63 0 c34 0 80 -5
102 -11z"/>
<path d="M3515 4913 c-4 -10 -27 -74 -50 -143 -24 -69 -82 -237 -129 -373
l-86 -248 102 3 102 3 20 63 20 63 140 -3 140 -3 20 -62 20 -63 103 0 103 0
-15 38 c-16 41 -255 733 -255 739 0 1 -51 3 -114 3 -99 0 -115 -2 -121 -17z
m205 -485 c0 -9 -164 -11 -172 -2 -5 4 53 193 78 254 5 12 94 -226 94 -252z"/>
<path d="M4060 4855 l0 -75 105 0 105 0 0 -315 0 -315 95 0 95 0 0 315 0 315
105 0 106 0 -3 73 -3 72 -302 3 -303 2 0 -75z"/>
<path d="M4975 4913 c-4 -10 -27 -74 -50 -143 -24 -69 -82 -237 -129 -373
l-86 -248 102 3 102 3 20 63 20 63 140 -3 140 -3 20 -62 20 -63 103 0 103 0
-15 38 c-16 41 -255 733 -255 739 0 1 -51 3 -114 3 -99 0 -115 -2 -121 -17z
m205 -485 c0 -9 -164 -11 -172 -2 -5 4 53 193 78 254 5 12 94 -226 94 -252z"/>
<path d="M5833 4908 c4 -13 64 -187 136 -388 l129 -365 119 -3 119 -3 134 378
c73 208 135 384 138 391 3 9 -20 12 -96 12 l-100 0 -92 -282 c-50 -156 -93
-290 -96 -298 -3 -8 -39 89 -80 215 -41 127 -85 259 -97 295 l-22 65 -99 3
c-98 3 -98 3 -93 -20z"/>
<path d="M6895 4913 c-4 -10 -27 -74 -50 -143 -24 -69 -82 -237 -129 -373
l-86 -248 102 3 102 3 20 63 20 63 140 -3 140 -3 20 -62 20 -63 103 0 103 0
-15 38 c-16 41 -255 733 -255 739 0 1 -51 3 -114 3 -99 0 -115 -2 -121 -17z
m205 -485 c0 -9 -164 -11 -172 -2 -5 4 53 193 78 254 5 12 94 -226 94 -252z"/>
<path d="M7490 4663 c0 -152 5 -284 10 -305 41 -145 200 -237 364 -209 123 21
194 73 245 181 26 55 26 55 26 325 l0 270 -92 3 -93 3 -1 -248 c0 -277 -5
-305 -58 -340 -60 -41 -162 -25 -193 30 -9 16 -14 98 -18 287 l-5 265 -92 3
-93 3 0 -268z"/>
<path d="M8300 4540 l0 -390 210 0 210 0 0 70 0 69 -117 3 -118 3 -3 318 -2
317 -90 0 -90 0 0 -390z"/>
<path d="M8777 4923 c-4 -3 -7 -37 -7 -75 l0 -68 105 0 105 0 0 -315 0 -315
95 0 95 0 0 315 0 315 105 0 105 0 0 75 0 75 -298 0 c-164 0 -302 -3 -305 -7z"/>
<path d="M3700 3675 c0 -22 4 -25 35 -25 l35 0 0 -120 0 -120 35 0 35 0 0 120
0 120 40 0 c36 0 40 3 40 25 l0 25 -110 0 -110 0 0 -25z"/>
<path d="M4090 3555 l0 -145 85 0 c84 0 85 0 85 25 0 23 -3 25 -50 25 l-50 0
0 40 0 40 45 0 c38 0 45 3 45 20 0 17 -7 20 -45 20 -45 0 -45 0 -45 35 l0 35
50 0 c47 0 50 2 50 25 0 25 -1 25 -85 25 l-85 0 0 -145z"/>
<path d="M4525 3691 c-35 -15 -74 -62 -81 -98 -21 -111 63 -199 172 -179 36 7
94 53 94 75 0 16 -62 13 -84 -4 -39 -29 -89 -17 -112 27 -20 39 -11 92 19 113
28 19 81 19 97 0 7 -9 29 -15 52 -15 40 0 40 0 26 23 -37 56 -121 83 -183 58z"/>
<path d="M4900 3555 l0 -145 30 0 30 0 0 60 0 60 60 0 60 0 0 -60 0 -60 30 0
30 0 0 145 0 145 -30 0 -30 0 0 -60 0 -60 -60 0 -60 0 0 60 0 60 -30 0 -30 0
0 -145z"/>
<path d="M5340 3555 l0 -145 30 0 30 0 0 90 c0 50 3 90 8 90 4 0 33 -41 64
-90 51 -81 60 -90 88 -90 l30 0 0 145 0 145 -30 0 -29 0 -3 -92 -3 -93 -60 92
c-55 86 -63 93 -92 93 l-33 0 0 -145z"/>
<path d="M5842 3681 c-67 -43 -90 -121 -54 -190 51 -100 186 -106 250 -11 20
29 23 44 20 88 -4 45 -10 59 -41 89 -30 31 -44 37 -89 40 -41 3 -60 -1 -86
-16z m118 -51 c45 -24 44 -126 0 -150 -31 -16 -72 -11 -97 12 -31 29 -32 99
-3 128 22 22 69 26 100 10z"/>
<path d="M6240 3555 l0 -145 75 0 c73 0 75 1 75 25 0 23 -4 25 -45 25 l-45 0
0 120 0 120 -30 0 -30 0 0 -145z"/>
<path d="M6621 3683 c-46 -23 -71 -67 -71 -126 0 -60 21 -99 70 -126 98 -55
213 12 213 123 0 113 -109 180 -212 129z m128 -69 c29 -37 27 -89 -4 -119 -74
-75 -180 35 -114 119 16 20 29 26 59 26 30 0 43 -6 59 -26z"/>
<path d="M7085 3691 c-60 -25 -93 -94 -82 -169 11 -69 102 -126 172 -108 47
12 96 66 102 114 l6 42 -77 0 c-74 0 -76 -1 -76 -25 0 -23 4 -25 40 -25 38 0
40 -2 30 -20 -12 -23 -50 -35 -85 -26 -55 14 -70 117 -22 151 28 19 81 19 97
0 7 -9 29 -15 52 -15 40 0 40 0 26 23 -37 56 -121 83 -183 58z"/>
<path d="M7479 3604 c41 -78 51 -106 51 -145 0 -48 1 -49 30 -49 29 0 30 2 30
45 0 34 11 66 50 138 28 52 50 97 50 100 0 4 -15 7 -34 7 -32 0 -35 -3 -62
-66 -32 -75 -38 -73 -70 17 -17 47 -19 49 -57 49 l-39 0 51 -96z"/>
</g>
</svg>
